<?xml version="1.0" encoding="UTF-8"?>
<svg xmlns="http://www.w3.org/2000/svg" xmlns:xlink="http://www.w3.org/1999/xlink" width="120px" height="120px" viewBox="0 0 120 120" version="1.1">
<g id="surface1">
<path style=" stroke:none;fill-rule:nonzero;fill:rgb(86.666667%,0%,0%);fill-opacity:1;" d="M 63.632812 120.117188 C 42.421875 120.117188 21.269531 120.117188 0.117188 120.117188 C 0.117188 80.117188 0.117188 40.117188 0.117188 0.117188 C 40.117188 0.117188 80.117188 0.117188 120.117188 0.117188 C 120.117188 40.117188 120.117188 80.117188 120.117188 120.117188 C 101.308594 120.117188 82.5 120.117188 63.632812 120.117188 M 73.242188 14.648438 C 73.242188 14.648438 73.234375 14.636719 73.175781 14.652344 C 73.152344 14.6875 73.128906 14.722656 73.125 14.757812 C 73.125 14.757812 73.109375 14.75 73.035156 14.78125 C 72.941406 14.96875 72.84375 15.152344 72.761719 15.351562 C 72.761719 15.351562 72.75 15.335938 72.683594 15.398438 C 72.585938 15.960938 72.675781 16.457031 73.179688 16.832031 C 73.179688 16.832031 73.203125 16.835938 73.242188 16.871094 C 73.277344 16.882812 73.3125 16.894531 73.347656 16.875 C 73.347656 16.875 73.34375 16.894531 73.378906 16.960938 C 73.449219 16.972656 73.519531 16.984375 73.589844 16.996094 C 73.589844 16.996094 73.59375 16.996094 73.660156 17.058594 C 75.269531 17.40625 76.875 17.75 78.519531 18.074219 C 78.519531 18.074219 78.484375 18.09375 78.542969 18.144531 C 78.640625 18.167969 78.742188 18.1875 78.855469 18.1875 C 78.855469 18.1875 78.835938 18.203125 78.882812 18.257812 C 78.953125 18.269531 79.023438 18.277344 79.097656 18.28125 C 79.097656 18.28125 79.097656 18.289062 79.148438 18.347656 C 79.246094 18.371094 79.34375 18.394531 79.492188 18.484375 C 82.710938 19.726562 85.402344 21.695312 87.542969 24.390625 C 90.175781 27.699219 91.667969 31.441406 91.648438 35.722656 C 91.644531 36.308594 91.875 36.785156 92.445312 37.03125 C 93.363281 37.429688 94.394531 36.722656 94.308594 35.628906 C 94.175781 33.890625 94.074219 32.117188 93.644531 30.441406 C 91.453125 21.914062 83.742188 15.472656 74.671875 14.410156 C 74.257812 14.445312 73.839844 14.480469 73.386719 14.511719 C 73.386719 14.511719 73.359375 14.542969 73.296875 14.542969 C 73.277344 14.578125 73.253906 14.609375 73.242188 14.648438 M 78.957031 64.308594 C 78.957031 64.308594 78.917969 64.277344 78.90625 64.175781 C 78.90625 62.871094 78.90625 61.570312 78.90625 60.269531 C 78.195312 60.269531 77.523438 60.269531 76.863281 60.269531 C 76.863281 63.476562 76.863281 66.648438 76.863281 69.816406 C 77.558594 69.816406 78.214844 69.816406 78.902344 69.816406 C 78.902344 68.269531 78.902344 66.742188 78.902344 65.21875 C 79.039062 65.21875 79.0625 65.296875 79.109375 65.359375 C 80.15625 66.738281 81.207031 68.117188 82.261719 69.492188 C 82.371094 69.632812 82.539062 69.820312 82.6875 69.828125 C 83.472656 69.859375 84.261719 69.84375 85.148438 69.84375 C 83.738281 68.0625 82.40625 66.371094 81.0625 64.675781 C 82.324219 63.195312 83.566406 61.742188 84.851562 60.234375 C 84.265625 60.234375 83.769531 60.289062 83.289062 60.222656 C 82.554688 60.117188 82.132812 60.457031 81.714844 61.003906 C 80.84375 62.148438 79.902344 63.234375 78.957031 64.308594 M 53.78125 55.542969 C 53.957031 55.585938 54.128906 55.65625 54.304688 55.660156 C 55.789062 55.667969 57.273438 55.664062 58.757812 55.664062 C 59.746094 55.664062 60.734375 55.664062 61.777344 55.664062 C 61.492188 54.882812 61.230469 54.164062 60.96875 53.441406 C 57.902344 44.925781 54.835938 36.410156 51.777344 27.886719 C 51.644531 27.515625 51.460938 27.410156 51.066406 27.410156 C 48.390625 27.429688 45.71875 27.429688 43.042969 27.414062 C 42.671875 27.410156 42.53125 27.53125 42.40625 27.878906 C 40.28125 33.761719 38.136719 39.636719 36.003906 45.511719 C 34.78125 48.875 33.566406 52.238281 32.347656 55.617188 C 32.425781 55.636719 32.480469 55.660156 32.53125 55.660156 C 35.011719 55.664062 37.488281 55.667969 39.96875 55.648438 C 40.125 55.644531 40.359375 55.441406 40.421875 55.28125 C 40.871094 54.113281 41.304688 52.941406 41.703125 51.753906 C 41.816406 51.414062 41.96875 51.320312 42.3125 51.320312 C 45.476562 51.332031 48.636719 51.335938 51.800781 51.320312 C 52.160156 51.316406 52.292969 51.441406 52.402344 51.765625 C 52.828125 53 53.289062 54.226562 53.78125 55.542969 M 57.65625 32.285156 C 57.65625 33.039062 57.65625 33.792969 57.65625 34.59375 C 60.15625 34.59375 62.585938 34.59375 65.0625 34.59375 C 65.0625 41.640625 65.0625 48.640625 65.0625 55.625 C 67.578125 55.625 70.046875 55.625 72.5625 55.625 C 72.5625 48.589844 72.5625 41.59375 72.5625 34.554688 C 75.023438 34.554688 77.4375 34.554688 79.875 34.554688 C 79.875 32.160156 79.875 29.8125 79.875 27.457031 C 72.460938 27.457031 65.074219 27.457031 57.65625 27.457031 C 57.65625 29.050781 57.65625 30.609375 57.65625 32.285156 M 73.082031 20.984375 C 72.667969 21.441406 72.511719 21.949219 72.765625 22.539062 C 73.019531 23.121094 73.507812 23.390625 74.105469 23.410156 C 75.609375 23.464844 77 23.851562 78.304688 24.609375 C 80.320312 25.78125 82.261719 27 83.394531 29.171875 C 84.066406 30.453125 85.046875 31.585938 85.234375 33.089844 C 85.347656 34.015625 85.457031 34.941406 85.539062 35.871094 C 85.601562 36.59375 86.125 37.148438 86.800781 37.144531 C 87.5 37.144531 88.140625 36.574219 88.113281 35.855469 C 88.078125 34.789062 88.097656 33.6875 87.847656 32.664062 C 86.359375 26.585938 81.398438 21.933594 75.453125 20.769531 C 74.695312 20.621094 73.882812 20.359375 73.082031 20.984375 M 73.359375 69.085938 C 75.183594 67.835938 75.753906 65.570312 75.164062 63.378906 C 74.441406 60.691406 71.714844 59.582031 69.097656 60.191406 C 66.808594 60.726562 65.429688 62.449219 65.292969 64.804688 C 65.160156 67.148438 66.507812 69.199219 68.664062 69.785156 C 70.277344 70.226562 71.847656 70.070312 73.359375 69.085938 M 76.199219 75.609375 C 76.816406 77.640625 77.4375 79.664062 78.042969 81.695312 C 78.132812 81.996094 78.246094 82.15625 78.589844 82.132812 C 79.054688 82.101562 79.523438 82.125 80.003906 82.125 C 80.539062 80.210938 81.066406 78.328125 81.640625 76.28125 C 82.207031 78.320312 82.734375 80.207031 83.253906 82.082031 C 83.351562 82.101562 83.40625 82.125 83.464844 82.121094 C 83.988281 82.117188 84.636719 82.289062 85.003906 82.046875 C 85.328125 81.828125 85.355469 81.148438 85.496094 80.667969 C 86.171875 78.363281 86.839844 76.054688 87.515625 73.734375 C 86.886719 73.734375 86.304688 73.734375 85.714844 73.734375 C 85.207031 75.644531 84.699219 77.535156 84.179688 79.480469 C 84.101562 79.390625 84.0625 79.363281 84.054688 79.332031 C 83.574219 77.582031 83.101562 75.832031 82.609375 74.085938 C 82.570312 73.941406 82.402344 73.738281 82.28125 73.726562 C 81.78125 73.6875 81.277344 73.710938 80.816406 73.710938 C 80.269531 75.695312 79.742188 77.597656 79.179688 79.640625 C 78.601562 77.566406 78.0625 75.640625 77.535156 73.753906 C 76.894531 73.753906 76.304688 73.753906 75.671875 73.753906 C 75.847656 74.375 76.011719 74.945312 76.199219 75.609375 M 57.65625 63.4375 C 57.65625 62.375 57.65625 61.3125 57.65625 60.257812 C 56.914062 60.257812 56.257812 60.257812 55.574219 60.257812 C 55.574219 63.453125 55.574219 66.625 55.574219 69.816406 C 56.273438 69.816406 56.941406 69.816406 57.664062 69.816406 C 57.664062 68.492188 57.664062 67.191406 57.664062 65.890625 C 59.050781 65.890625 60.386719 65.890625 61.773438 65.890625 C 61.773438 67.21875 61.773438 68.515625 61.773438 69.808594 C 62.496094 69.808594 63.167969 69.808594 63.832031 69.808594 C 63.832031 66.601562 63.832031 63.433594 63.832031 60.273438 C 63.125 60.273438 62.453125 60.273438 61.738281 60.273438 C 61.738281 61.550781 61.738281 62.792969 61.738281 64.042969 C 60.363281 64.042969 59.027344 64.042969 57.65625 64.042969 C 57.65625 63.859375 57.65625 63.707031 57.65625 63.4375 M 44.328125 64.355469 C 43.828125 62.984375 43.324219 61.613281 42.828125 60.257812 C 41.953125 60.257812 41.117188 60.257812 40.253906 60.257812 C 39.097656 63.394531 37.945312 66.515625 36.792969 69.640625 C 36.773438 69.695312 36.769531 69.753906 36.753906 69.84375 C 37.371094 69.84375 37.972656 69.867188 38.574219 69.828125 C 38.730469 69.820312 38.949219 69.65625 39.007812 69.511719 C 39.253906 68.929688 39.441406 68.328125 39.652344 67.734375 C 40.828125 67.734375 41.960938 67.75 43.09375 67.726562 C 43.386719 67.71875 43.5 67.84375 43.582031 68.085938 C 43.789062 68.664062 43.847656 69.488281 44.261719 69.753906 C 44.71875 70.046875 45.507812 69.835938 46.148438 69.84375 C 46.21875 69.84375 46.289062 69.835938 46.386719 69.828125 C 45.707031 68.003906 45.042969 66.21875 44.328125 64.355469 M 47.808594 64.507812 C 48.300781 64.804688 48.773438 65.140625 49.289062 65.382812 C 49.894531 65.671875 50.570312 65.820312 51.160156 66.136719 C 51.480469 66.3125 51.808594 66.671875 51.90625 67.011719 C 52.089844 67.65625 51.507812 68.164062 50.691406 68.203125 C 49.464844 68.261719 48.386719 67.839844 47.320312 67.152344 C 47.359375 67.859375 47.375 68.5 47.433594 69.136719 C 47.445312 69.265625 47.585938 69.4375 47.710938 69.492188 C 49.078125 70.066406 50.492188 70.183594 51.914062 69.761719 C 53.285156 69.359375 54.058594 68.390625 54.132812 67.089844 C 54.203125 65.875 53.59375 65.035156 52.179688 64.441406 C 51.488281 64.152344 50.773438 63.90625 50.089844 63.597656 C 49.65625 63.402344 49.222656 63.09375 49.363281 62.542969 C 49.5 61.992188 49.964844 61.796875 50.519531 61.75 C 51.5625 61.667969 52.5 61.980469 53.429688 62.460938 C 53.429688 61.921875 53.398438 61.433594 53.441406 60.949219 C 53.476562 60.59375 53.304688 60.46875 53.019531 60.382812 C 51.964844 60.070312 50.898438 59.929688 49.804688 60.125 C 47.582031 60.519531 46.574219 62.636719 47.808594 64.507812 M 62.460938 80.214844 C 62.460938 79.019531 62.460938 77.824219 62.460938 76.464844 C 63.710938 78.316406 64.855469 80.019531 66.015625 81.714844 C 66.125 81.878906 66.296875 82.09375 66.460938 82.109375 C 66.957031 82.164062 67.457031 82.128906 67.953125 82.128906 C 67.953125 79.28125 67.953125 76.515625 67.953125 73.738281 C 67.410156 73.738281 66.890625 73.738281 66.320312 73.738281 C 66.320312 75.5625 66.320312 77.359375 66.320312 79.28125 C 66.199219 79.121094 66.15625 79.070312 66.117188 79.011719 C 65.007812 77.394531 63.90625 75.769531 62.785156 74.160156 C 62.65625 73.972656 62.4375 73.757812 62.234375 73.730469 C 61.78125 73.667969 61.3125 73.710938 60.867188 73.710938 C 60.867188 76.550781 60.867188 79.328125 60.867188 82.097656 C 61.410156 82.097656 61.914062 82.097656 62.460938 82.097656 C 62.460938 81.492188 62.460938 80.914062 62.460938 80.214844 M 48.984375 77.753906 C 48.984375 79.191406 48.984375 80.632812 48.984375 82.09375 C 49.589844 82.09375 50.144531 82.09375 50.761719 82.09375 C 50.761719 80.890625 50.761719 79.710938 50.761719 78.558594 C 52.007812 78.558594 53.191406 78.558594 54.410156 78.558594 C 54.410156 79.761719 54.410156 80.925781 54.410156 82.09375 C 55.007812 82.09375 55.5625 82.09375 56.125 82.09375 C 56.125 79.285156 56.125 76.503906 56.125 73.746094 C 55.527344 73.746094 54.96875 73.746094 54.355469 73.746094 C 54.355469 74.855469 54.355469 75.9375 54.355469 77.003906 C 53.128906 77.003906 51.960938 77.003906 50.738281 77.003906 C 50.738281 75.902344 50.738281 74.824219 50.738281 73.746094 C 50.121094 73.746094 49.566406 73.746094 48.984375 73.746094 C 48.984375 75.066406 48.984375 76.351562 48.984375 77.753906 M 36.324219 76.113281 C 36.324219 75.828125 36.324219 75.546875 36.324219 75.214844 C 37.574219 75.214844 38.753906 75.214844 39.925781 75.214844 C 39.925781 74.691406 39.925781 74.214844 39.925781 73.753906 C 38.109375 73.753906 36.332031 73.753906 34.582031 73.753906 C 34.582031 76.5625 34.582031 79.324219 34.582031 82.097656 C 36.425781 82.097656 38.230469 82.097656 40.058594 82.097656 C 40.058594 81.597656 40.058594 81.125 40.058594 80.609375 C 38.800781 80.609375 37.578125 80.609375 36.355469 80.609375 C 36.355469 79.933594 36.355469 79.300781 36.355469 78.621094 C 37.449219 78.621094 38.511719 78.621094 39.566406 78.621094 C 39.566406 78.117188 39.566406 77.664062 39.566406 77.179688 C 38.472656 77.179688 37.421875 77.179688 36.324219 77.179688 C 36.324219 76.84375 36.324219 76.535156 36.324219 76.113281 M 70.613281 82.121094 C 72.105469 82.121094 73.601562 82.121094 75.085938 82.121094 C 75.085938 81.578125 75.085938 81.121094 75.085938 80.609375 C 73.835938 80.609375 72.617188 80.609375 71.402344 80.609375 C 71.402344 79.925781 71.402344 79.292969 71.402344 78.609375 C 72.5 78.609375 73.566406 78.609375 74.621094 78.609375 C 74.621094 78.117188 74.621094 77.675781 74.621094 77.183594 C 73.527344 77.183594 72.464844 77.183594 71.394531 77.183594 C 71.394531 76.511719 71.394531 75.898438 71.394531 75.230469 C 72.597656 75.230469 73.777344 75.230469 74.96875 75.230469 C 74.96875 74.703125 74.96875 74.226562 74.96875 73.738281 C 73.175781 73.738281 71.410156 73.738281 69.644531 73.738281 C 69.644531 76.542969 69.644531 79.320312 69.644531 82.121094 C 69.957031 82.121094 70.226562 82.121094 70.613281 82.121094 M 88.070312 75.042969 C 88.035156 75.59375 87.898438 76.160156 87.984375 76.691406 C 88.160156 77.78125 89.128906 78.050781 89.992188 78.398438 C 90.457031 78.582031 90.964844 78.707031 91.367188 78.984375 C 91.621094 79.160156 91.851562 79.582031 91.832031 79.875 C 91.8125 80.132812 91.476562 80.476562 91.203125 80.589844 C 90.871094 80.726562 90.433594 80.75 90.078125 80.667969 C 89.339844 80.492188 88.625 80.214844 87.882812 79.972656 C 87.914062 80.40625 87.96875 80.890625 87.976562 81.375 C 87.980469 81.671875 88.082031 81.816406 88.363281 81.917969 C 89.449219 82.316406 90.558594 82.402344 91.679688 82.132812 C 92.914062 81.832031 93.71875 80.902344 93.707031 79.6875 C 93.695312 78.5625 93.371094 77.949219 91.964844 77.351562 C 91.683594 77.230469 91.378906 77.15625 91.101562 77.027344 C 90.703125 76.839844 90.277344 76.671875 89.941406 76.402344 C 89.5 76.039062 89.566406 75.542969 90.0625 75.242188 C 90.28125 75.109375 90.578125 74.984375 90.816406 75.019531 C 91.605469 75.132812 92.378906 75.324219 93.128906 75.480469 C 93.128906 75.203125 93.105469 74.8125 93.132812 74.421875 C 93.15625 74.0625 92.992188 73.875 92.664062 73.835938 C 91.878906 73.742188 91.082031 73.570312 90.304688 73.625 C 89.394531 73.6875 88.585938 74.09375 88.070312 75.042969 M 41.847656 75.195312 C 40.570312 76.859375 40.75 79.519531 42.070312 80.898438 C 43.492188 82.378906 45.945312 82.722656 47.800781 81.675781 C 47.800781 81.15625 47.800781 80.632812 47.800781 80.105469 C 45.574219 80.9375 44.195312 80.769531 43.28125 79.5625 C 42.585938 78.640625 42.601562 77.085938 43.324219 76.128906 C 44.171875 75 45.429688 74.855469 47.578125 75.652344 C 47.578125 75.3125 47.542969 74.980469 47.585938 74.660156 C 47.652344 74.203125 47.4375 74.007812 47.046875 73.871094 C 45.285156 73.253906 43.199219 73.566406 41.847656 75.195312 M 30.070312 82.121094 C 30.433594 82.121094 30.796875 82.121094 31.1875 82.121094 C 31.1875 79.792969 31.1875 77.539062 31.1875 75.234375 C 32.007812 75.234375 32.796875 75.234375 33.605469 75.234375 C 33.605469 74.707031 33.605469 74.230469 33.605469 73.738281 C 31.386719 73.738281 29.191406 73.738281 26.980469 73.738281 C 26.980469 74.238281 26.980469 74.714844 26.980469 75.246094 C 27.796875 75.246094 28.585938 75.246094 29.414062 75.246094 C 29.414062 77.554688 29.414062 79.808594 29.414062 82.097656 C 29.621094 82.105469 29.789062 82.113281 30.070312 82.121094 Z M 30.070312 82.121094 "/>
<path style=" stroke:none;fill-rule:nonzero;fill:rgb(100%,99.607843%,99.607843%);fill-opacity:1;" d="M 53.757812 55.5 C 53.289062 54.226562 52.828125 53 52.402344 51.765625 C 52.292969 51.441406 52.160156 51.316406 51.800781 51.320312 C 48.636719 51.335938 45.476562 51.332031 42.3125 51.320312 C 41.96875 51.320312 41.816406 51.414062 41.703125 51.753906 C 41.304688 52.941406 40.871094 54.113281 40.421875 55.28125 C 40.359375 55.441406 40.125 55.644531 39.96875 55.648438 C 37.488281 55.667969 35.011719 55.664062 32.53125 55.660156 C 32.480469 55.660156 32.425781 55.636719 32.347656 55.617188 C 33.566406 52.238281 34.78125 48.875 36.003906 45.511719 C 38.136719 39.636719 40.28125 33.761719 42.40625 27.878906 C 42.53125 27.53125 42.671875 27.410156 43.042969 27.414062 C 45.71875 27.429688 48.390625 27.429688 51.066406 27.410156 C 51.460938 27.410156 51.644531 27.515625 51.777344 27.886719 C 54.835938 36.410156 57.902344 44.925781 60.96875 53.441406 C 61.230469 54.164062 61.492188 54.882812 61.777344 55.664062 C 60.734375 55.664062 59.746094 55.664062 58.757812 55.664062 C 57.273438 55.664062 55.789062 55.667969 54.304688 55.660156 C 54.128906 55.65625 53.957031 55.585938 53.757812 55.5 M 46.429688 38.054688 C 45.640625 40.433594 44.847656 42.816406 44.054688 45.203125 C 46.078125 45.203125 48.050781 45.203125 50.085938 45.203125 C 49.085938 42.183594 48.105469 39.214844 47.089844 36.132812 C 46.851562 36.84375 46.664062 37.410156 46.429688 38.054688 Z M 46.429688 38.054688 "/>
<path style=" stroke:none;fill-rule:nonzero;fill:rgb(100%,100%,100%);fill-opacity:1;" d="M 57.65625 32.226562 C 57.65625 30.609375 57.65625 29.050781 57.65625 27.457031 C 65.074219 27.457031 72.460938 27.457031 79.875 27.457031 C 79.875 29.8125 79.875 32.160156 79.875 34.554688 C 77.4375 34.554688 75.023438 34.554688 72.5625 34.554688 C 72.5625 41.59375 72.5625 48.589844 72.5625 55.625 C 70.046875 55.625 67.578125 55.625 65.0625 55.625 C 65.0625 48.640625 65.0625 41.640625 65.0625 34.59375 C 62.585938 34.59375 60.15625 34.59375 57.65625 34.59375 C 57.65625 33.792969 57.65625 33.039062 57.65625 32.226562 Z M 57.65625 32.226562 "/>
<path style=" stroke:none;fill-rule:nonzero;fill:rgb(1.176471%,57.254905%,83.529413%);fill-opacity:1;" d="M 73.359375 14.542969 C 73.359375 14.542969 73.386719 14.511719 73.460938 14.515625 C 73.945312 14.492188 74.355469 14.464844 74.761719 14.433594 C 83.742188 15.472656 91.453125 21.914062 93.644531 30.441406 C 94.074219 32.117188 94.175781 33.890625 94.308594 35.628906 C 94.394531 36.722656 93.363281 37.429688 92.445312 37.03125 C 91.875 36.785156 91.644531 36.308594 91.648438 35.722656 C 91.667969 31.441406 90.175781 27.699219 87.542969 24.390625 C 85.402344 21.695312 82.710938 19.726562 79.445312 18.417969 C 79.296875 18.332031 79.199219 18.3125 79.097656 18.289062 C 79.097656 18.289062 79.097656 18.28125 79.074219 18.257812 C 78.976562 18.222656 78.90625 18.214844 78.835938 18.203125 C 78.835938 18.203125 78.855469 18.1875 78.828125 18.160156 C 78.695312 18.121094 78.589844 18.105469 78.484375 18.09375 C 78.484375 18.09375 78.519531 18.074219 78.484375 18.046875 C 76.894531 17.371094 75.265625 17.089844 73.59375 16.996094 C 73.59375 16.996094 73.589844 16.996094 73.566406 16.96875 C 73.476562 16.925781 73.410156 16.910156 73.34375 16.894531 C 73.34375 16.894531 73.347656 16.875 73.328125 16.863281 C 73.277344 16.824219 73.242188 16.820312 73.203125 16.835938 C 73.203125 16.835938 73.179688 16.832031 73.179688 16.78125 C 73.035156 16.261719 72.894531 15.796875 72.75 15.335938 C 72.75 15.335938 72.761719 15.351562 72.789062 15.324219 C 72.914062 15.117188 73.011719 14.933594 73.109375 14.75 C 73.109375 14.75 73.125 14.757812 73.144531 14.742188 C 73.1875 14.699219 73.210938 14.667969 73.234375 14.636719 C 73.234375 14.636719 73.242188 14.648438 73.261719 14.632812 C 73.3125 14.597656 73.339844 14.574219 73.359375 14.542969 Z M 73.359375 14.542969 "/>
<path style=" stroke:none;fill-rule:nonzero;fill:rgb(1.176471%,57.254905%,83.529413%);fill-opacity:1;" d="M 73.113281 20.953125 C 73.882812 20.359375 74.695312 20.621094 75.453125 20.769531 C 81.398438 21.933594 86.359375 26.585938 87.847656 32.664062 C 88.097656 33.6875 88.078125 34.789062 88.113281 35.855469 C 88.140625 36.574219 87.5 37.144531 86.800781 37.144531 C 86.125 37.148438 85.601562 36.59375 85.539062 35.871094 C 85.457031 34.941406 85.347656 34.015625 85.234375 33.089844 C 85.046875 31.585938 84.066406 30.453125 83.394531 29.171875 C 82.261719 27 80.320312 25.78125 78.304688 24.609375 C 77 23.851562 75.609375 23.464844 74.105469 23.410156 C 73.507812 23.390625 73.019531 23.121094 72.765625 22.539062 C 72.511719 21.949219 72.667969 21.441406 73.113281 20.953125 Z M 73.113281 20.953125 "/>
<path style=" stroke:none;fill-rule:nonzero;fill:rgb(100%,98.823529%,98.823529%);fill-opacity:1;" d="M 73.324219 69.113281 C 71.847656 70.070312 70.277344 70.226562 68.664062 69.785156 C 66.507812 69.199219 65.160156 67.148438 65.292969 64.804688 C 65.429688 62.449219 66.808594 60.726562 69.097656 60.191406 C 71.714844 59.582031 74.441406 60.691406 75.164062 63.378906 C 75.753906 65.570312 75.183594 67.835938 73.324219 69.113281 M 67.847656 66.839844 C 68.648438 68.148438 70.203125 68.582031 71.648438 67.871094 C 73.019531 67.195312 73.300781 65.972656 73.242188 64.59375 C 73.1875 63.34375 72.449219 62.324219 71.324219 61.941406 C 70.179688 61.554688 68.847656 61.890625 68.117188 62.863281 C 67.210938 64.074219 67.21875 65.40625 67.847656 66.839844 Z M 67.847656 66.839844 "/>
<path style=" stroke:none;fill-rule:nonzero;fill:rgb(100%,98.823529%,98.823529%);fill-opacity:1;" d="M 76.1875 75.566406 C 76.011719 74.945312 75.847656 74.375 75.671875 73.753906 C 76.304688 73.753906 76.894531 73.753906 77.535156 73.753906 C 78.0625 75.640625 78.601562 77.566406 79.179688 79.640625 C 79.742188 77.597656 80.269531 75.695312 80.816406 73.710938 C 81.277344 73.710938 81.78125 73.6875 82.28125 73.726562 C 82.402344 73.738281 82.570312 73.941406 82.609375 74.085938 C 83.101562 75.832031 83.574219 77.582031 84.054688 79.332031 C 84.0625 79.363281 84.101562 79.390625 84.179688 79.480469 C 84.699219 77.535156 85.207031 75.644531 85.714844 73.734375 C 86.304688 73.734375 86.886719 73.734375 87.515625 73.734375 C 86.839844 76.054688 86.171875 78.363281 85.496094 80.667969 C 85.355469 81.148438 85.328125 81.828125 85.003906 82.046875 C 84.636719 82.289062 83.988281 82.117188 83.464844 82.121094 C 83.40625 82.125 83.351562 82.101562 83.253906 82.082031 C 82.734375 80.207031 82.207031 78.320312 81.640625 76.28125 C 81.066406 78.328125 80.539062 80.210938 80.003906 82.125 C 79.523438 82.125 79.054688 82.101562 78.589844 82.132812 C 78.246094 82.15625 78.132812 81.996094 78.042969 81.695312 C 77.4375 79.664062 76.816406 77.640625 76.1875 75.566406 Z M 76.1875 75.566406 "/>
<path style=" stroke:none;fill-rule:nonzero;fill:rgb(100%,99.607843%,99.607843%);fill-opacity:1;" d="M 57.65625 63.496094 C 57.65625 63.707031 57.65625 63.859375 57.65625 64.042969 C 59.027344 64.042969 60.363281 64.042969 61.738281 64.042969 C 61.738281 62.792969 61.738281 61.550781 61.738281 60.273438 C 62.453125 60.273438 63.125 60.273438 63.832031 60.273438 C 63.832031 63.433594 63.832031 66.601562 63.832031 69.808594 C 63.167969 69.808594 62.496094 69.808594 61.773438 69.808594 C 61.773438 68.515625 61.773438 67.21875 61.773438 65.890625 C 60.386719 65.890625 59.050781 65.890625 57.664062 65.890625 C 57.664062 67.191406 57.664062 68.492188 57.664062 69.816406 C 56.941406 69.816406 56.273438 69.816406 55.574219 69.816406 C 55.574219 66.625 55.574219 63.453125 55.574219 60.257812 C 56.257812 60.257812 56.914062 60.257812 57.65625 60.257812 C 57.65625 61.3125 57.65625 62.375 57.65625 63.496094 Z M 57.65625 63.496094 "/>
<path style=" stroke:none;fill-rule:nonzero;fill:rgb(100%,99.215686%,99.215686%);fill-opacity:1;" d="M 78.992188 64.34375 C 79.902344 63.234375 80.84375 62.148438 81.714844 61.003906 C 82.132812 60.457031 82.554688 60.117188 83.289062 60.222656 C 83.769531 60.289062 84.265625 60.234375 84.851562 60.234375 C 83.566406 61.742188 82.324219 63.195312 81.0625 64.675781 C 82.40625 66.371094 83.738281 68.0625 85.148438 69.84375 C 84.261719 69.84375 83.472656 69.859375 82.6875 69.828125 C 82.539062 69.820312 82.371094 69.632812 82.261719 69.492188 C 81.207031 68.117188 80.15625 66.738281 79.109375 65.359375 C 79.0625 65.296875 79.039062 65.21875 78.902344 65.21875 C 78.902344 66.742188 78.902344 68.269531 78.902344 69.816406 C 78.214844 69.816406 77.558594 69.816406 76.863281 69.816406 C 76.863281 66.648438 76.863281 63.476562 76.863281 60.269531 C 77.523438 60.269531 78.195312 60.269531 78.90625 60.269531 C 78.90625 61.570312 78.90625 62.871094 78.898438 64.253906 C 78.898438 64.359375 78.90625 64.390625 78.914062 64.417969 C 78.941406 64.394531 78.964844 64.371094 78.992188 64.34375 Z M 78.992188 64.34375 "/>
<path style=" stroke:none;fill-rule:nonzero;fill:rgb(100%,99.215686%,99.215686%);fill-opacity:1;" d="M 44.355469 64.394531 C 45.042969 66.21875 45.707031 68.003906 46.386719 69.828125 C 46.289062 69.835938 46.21875 69.84375 46.148438 69.84375 C 45.507812 69.835938 44.71875 70.046875 44.261719 69.753906 C 43.847656 69.488281 43.789062 68.664062 43.582031 68.085938 C 43.5 67.84375 43.386719 67.71875 43.09375 67.726562 C 41.960938 67.75 40.828125 67.734375 39.652344 67.734375 C 39.441406 68.328125 39.253906 68.929688 39.007812 69.511719 C 38.949219 69.65625 38.730469 69.820312 38.574219 69.828125 C 37.972656 69.867188 37.371094 69.84375 36.753906 69.84375 C 36.769531 69.753906 36.773438 69.695312 36.792969 69.640625 C 37.945312 66.515625 39.097656 63.394531 40.253906 60.257812 C 41.117188 60.257812 41.953125 60.257812 42.828125 60.257812 C 43.324219 61.613281 43.828125 62.984375 44.355469 64.394531 M 40.992188 63.894531 C 40.75 64.574219 40.511719 65.253906 40.261719 65.960938 C 41.15625 65.960938 41.964844 65.960938 42.824219 65.960938 C 42.402344 64.734375 41.996094 63.554688 41.550781 62.257812 C 41.339844 62.859375 41.179688 63.332031 40.992188 63.894531 Z M 40.992188 63.894531 "/>
<path style=" stroke:none;fill-rule:nonzero;fill:rgb(100%,98.823529%,98.823529%);fill-opacity:1;" d="M 47.777344 64.476562 C 46.574219 62.636719 47.582031 60.519531 49.804688 60.125 C 50.898438 59.929688 51.964844 60.070312 53.019531 60.382812 C 53.304688 60.46875 53.476562 60.59375 53.441406 60.949219 C 53.398438 61.433594 53.429688 61.921875 53.429688 62.460938 C 52.5 61.980469 51.5625 61.667969 50.519531 61.75 C 49.964844 61.796875 49.5 61.992188 49.363281 62.542969 C 49.222656 63.09375 49.65625 63.402344 50.089844 63.597656 C 50.773438 63.90625 51.488281 64.152344 52.179688 64.441406 C 53.59375 65.035156 54.203125 65.875 54.132812 67.089844 C 54.058594 68.390625 53.285156 69.359375 51.914062 69.761719 C 50.492188 70.183594 49.078125 70.066406 47.710938 69.492188 C 47.585938 69.4375 47.445312 69.265625 47.433594 69.136719 C 47.375 68.5 47.359375 67.859375 47.320312 67.152344 C 48.386719 67.839844 49.464844 68.261719 50.691406 68.203125 C 51.507812 68.164062 52.089844 67.65625 51.90625 67.011719 C 51.808594 66.671875 51.480469 66.3125 51.160156 66.136719 C 50.570312 65.820312 49.894531 65.671875 49.289062 65.382812 C 48.773438 65.140625 48.300781 64.804688 47.777344 64.476562 Z M 47.777344 64.476562 "/>
<path style=" stroke:none;fill-rule:nonzero;fill:rgb(100%,99.215686%,99.215686%);fill-opacity:1;" d="M 62.460938 80.273438 C 62.460938 80.914062 62.460938 81.492188 62.460938 82.097656 C 61.914062 82.097656 61.410156 82.097656 60.867188 82.097656 C 60.867188 79.328125 60.867188 76.550781 60.867188 73.710938 C 61.3125 73.710938 61.78125 73.667969 62.234375 73.730469 C 62.4375 73.757812 62.65625 73.972656 62.785156 74.160156 C 63.90625 75.769531 65.007812 77.394531 66.117188 79.011719 C 66.15625 79.070312 66.199219 79.121094 66.320312 79.28125 C 66.320312 77.359375 66.320312 75.5625 66.320312 73.738281 C 66.890625 73.738281 67.410156 73.738281 67.953125 73.738281 C 67.953125 76.515625 67.953125 79.28125 67.953125 82.128906 C 67.457031 82.128906 66.957031 82.164062 66.460938 82.109375 C 66.296875 82.09375 66.125 81.878906 66.015625 81.714844 C 64.855469 80.019531 63.710938 78.316406 62.460938 76.464844 C 62.460938 77.824219 62.460938 79.019531 62.460938 80.273438 Z M 62.460938 80.273438 "/>
<path style=" stroke:none;fill-rule:nonzero;fill:rgb(100%,98.823529%,98.823529%);fill-opacity:1;" d="M 48.984375 77.695312 C 48.984375 76.351562 48.984375 75.066406 48.984375 73.746094 C 49.566406 73.746094 50.121094 73.746094 50.738281 73.746094 C 50.738281 74.824219 50.738281 75.902344 50.738281 77.003906 C 51.960938 77.003906 53.128906 77.003906 54.355469 77.003906 C 54.355469 75.9375 54.355469 74.855469 54.355469 73.746094 C 54.96875 73.746094 55.527344 73.746094 56.125 73.746094 C 56.125 76.503906 56.125 79.285156 56.125 82.09375 C 55.5625 82.09375 55.007812 82.09375 54.410156 82.09375 C 54.410156 80.925781 54.410156 79.761719 54.410156 78.558594 C 53.191406 78.558594 52.007812 78.558594 50.761719 78.558594 C 50.761719 79.710938 50.761719 80.890625 50.761719 82.09375 C 50.144531 82.09375 49.589844 82.09375 48.984375 82.09375 C 48.984375 80.632812 48.984375 79.191406 48.984375 77.695312 Z M 48.984375 77.695312 "/>
<path style=" stroke:none;fill-rule:nonzero;fill:rgb(100%,99.215686%,99.215686%);fill-opacity:1;" d="M 36.324219 76.171875 C 36.324219 76.535156 36.324219 76.84375 36.324219 77.179688 C 37.421875 77.179688 38.472656 77.179688 39.566406 77.179688 C 39.566406 77.664062 39.566406 78.117188 39.566406 78.621094 C 38.511719 78.621094 37.449219 78.621094 36.355469 78.621094 C 36.355469 79.300781 36.355469 79.933594 36.355469 80.609375 C 37.578125 80.609375 38.800781 80.609375 40.058594 80.609375 C 40.058594 81.125 40.058594 81.597656 40.058594 82.097656 C 38.230469 82.097656 36.425781 82.097656 34.582031 82.097656 C 34.582031 79.324219 34.582031 76.5625 34.582031 73.753906 C 36.332031 73.753906 38.109375 73.753906 39.925781 73.753906 C 39.925781 74.214844 39.925781 74.691406 39.925781 75.214844 C 38.753906 75.214844 37.574219 75.214844 36.324219 75.214844 C 36.324219 75.546875 36.324219 75.828125 36.324219 76.171875 Z M 36.324219 76.171875 "/>
<path style=" stroke:none;fill-rule:nonzero;fill:rgb(100%,99.215686%,99.215686%);fill-opacity:1;" d="M 70.554688 82.121094 C 70.226562 82.121094 69.957031 82.121094 69.644531 82.121094 C 69.644531 79.320312 69.644531 76.542969 69.644531 73.738281 C 71.410156 73.738281 73.175781 73.738281 74.96875 73.738281 C 74.96875 74.226562 74.96875 74.703125 74.96875 75.230469 C 73.777344 75.230469 72.597656 75.230469 71.394531 75.230469 C 71.394531 75.898438 71.394531 76.511719 71.394531 77.183594 C 72.464844 77.183594 73.527344 77.183594 74.621094 77.183594 C 74.621094 77.675781 74.621094 78.117188 74.621094 78.609375 C 73.566406 78.609375 72.5 78.609375 71.402344 78.609375 C 71.402344 79.292969 71.402344 79.925781 71.402344 80.609375 C 72.617188 80.609375 73.835938 80.609375 75.085938 80.609375 C 75.085938 81.121094 75.085938 81.578125 75.085938 82.121094 C 73.601562 82.121094 72.105469 82.121094 70.554688 82.121094 Z M 70.554688 82.121094 "/>
<path style=" stroke:none;fill-rule:nonzero;fill:rgb(100%,98.823529%,98.823529%);fill-opacity:1;" d="M 88.09375 75.003906 C 88.585938 74.09375 89.394531 73.6875 90.304688 73.625 C 91.082031 73.570312 91.878906 73.742188 92.664062 73.835938 C 92.992188 73.875 93.15625 74.0625 93.132812 74.421875 C 93.105469 74.8125 93.128906 75.203125 93.128906 75.480469 C 92.378906 75.324219 91.605469 75.132812 90.816406 75.019531 C 90.578125 74.984375 90.28125 75.109375 90.0625 75.242188 C 89.566406 75.542969 89.5 76.039062 89.941406 76.402344 C 90.277344 76.671875 90.703125 76.839844 91.101562 77.027344 C 91.378906 77.15625 91.683594 77.230469 91.964844 77.351562 C 93.371094 77.949219 93.695312 78.5625 93.707031 79.6875 C 93.71875 80.902344 92.914062 81.832031 91.679688 82.132812 C 90.558594 82.402344 89.449219 82.316406 88.363281 81.917969 C 88.082031 81.816406 87.980469 81.671875 87.976562 81.375 C 87.96875 80.890625 87.914062 80.40625 87.882812 79.972656 C 88.625 80.214844 89.339844 80.492188 90.078125 80.667969 C 90.433594 80.75 90.871094 80.726562 91.203125 80.589844 C 91.476562 80.476562 91.8125 80.132812 91.832031 79.875 C 91.851562 79.582031 91.621094 79.160156 91.367188 78.984375 C 90.964844 78.707031 90.457031 78.582031 89.992188 78.398438 C 89.128906 78.050781 88.160156 77.78125 87.984375 76.691406 C 87.898438 76.160156 88.035156 75.59375 88.09375 75.003906 Z M 88.09375 75.003906 "/>
<path style=" stroke:none;fill-rule:nonzero;fill:rgb(100%,98.823529%,98.823529%);fill-opacity:1;" d="M 41.875 75.160156 C 43.199219 73.566406 45.285156 73.253906 47.046875 73.871094 C 47.4375 74.007812 47.652344 74.203125 47.585938 74.660156 C 47.542969 74.980469 47.578125 75.3125 47.578125 75.652344 C 45.429688 74.855469 44.171875 75 43.324219 76.128906 C 42.601562 77.085938 42.585938 78.640625 43.28125 79.5625 C 44.195312 80.769531 45.574219 80.9375 47.800781 80.105469 C 47.800781 80.632812 47.800781 81.15625 47.800781 81.675781 C 45.945312 82.722656 43.492188 82.378906 42.070312 80.898438 C 40.75 79.519531 40.570312 76.859375 41.875 75.160156 Z M 41.875 75.160156 "/>
<path style=" stroke:none;fill-rule:nonzero;fill:rgb(100%,99.215686%,99.215686%);fill-opacity:1;" d="M 30.015625 82.121094 C 29.789062 82.113281 29.621094 82.105469 29.414062 82.097656 C 29.414062 79.808594 29.414062 77.554688 29.414062 75.246094 C 28.585938 75.246094 27.796875 75.246094 26.980469 75.246094 C 26.980469 74.714844 26.980469 74.238281 26.980469 73.738281 C 29.191406 73.738281 31.386719 73.738281 33.605469 73.738281 C 33.605469 74.230469 33.605469 74.707031 33.605469 75.234375 C 32.796875 75.234375 32.007812 75.234375 31.1875 75.234375 C 31.1875 77.539062 31.1875 79.792969 31.1875 82.121094 C 30.796875 82.121094 30.433594 82.121094 30.015625 82.121094 Z M 30.015625 82.121094 "/>
<path style=" stroke:none;fill-rule:nonzero;fill:rgb(1.176471%,57.254905%,83.529413%);fill-opacity:1;" d="M 73.628906 17.027344 C 75.265625 17.089844 76.894531 17.371094 78.46875 18.058594 C 76.875 17.75 75.269531 17.40625 73.628906 17.027344 Z M 73.628906 17.027344 "/>
<path style=" stroke:none;fill-rule:nonzero;fill:rgb(1.176471%,57.254905%,83.529413%);fill-opacity:1;" d="M 72.71875 15.367188 C 72.894531 15.796875 73.035156 16.261719 73.175781 16.769531 C 72.675781 16.457031 72.585938 15.960938 72.71875 15.367188 Z M 72.71875 15.367188 "/>
<path style=" stroke:none;fill-rule:nonzero;fill:rgb(1.176471%,57.254905%,83.529413%);fill-opacity:1;" d="M 74.71875 14.421875 C 74.355469 14.464844 73.945312 14.492188 73.484375 14.519531 C 73.839844 14.480469 74.257812 14.445312 74.71875 14.421875 Z M 74.71875 14.421875 "/>
<path style=" stroke:none;fill-rule:nonzero;fill:rgb(1.176471%,57.254905%,83.529413%);fill-opacity:1;" d="M 73.070312 14.765625 C 73.011719 14.933594 72.914062 15.117188 72.78125 15.316406 C 72.84375 15.152344 72.941406 14.96875 73.070312 14.765625 Z M 73.070312 14.765625 "/>
<path style=" stroke:none;fill-rule:nonzero;fill:rgb(1.176471%,57.254905%,83.529413%);fill-opacity:1;" d="M 79.125 18.316406 C 79.199219 18.3125 79.296875 18.332031 79.417969 18.386719 C 79.34375 18.394531 79.246094 18.371094 79.125 18.316406 Z M 79.125 18.316406 "/>
<path style=" stroke:none;fill-rule:nonzero;fill:rgb(1.176471%,57.254905%,83.529413%);fill-opacity:1;" d="M 78.511719 18.117188 C 78.589844 18.105469 78.695312 18.121094 78.820312 18.171875 C 78.742188 18.1875 78.640625 18.167969 78.511719 18.117188 Z M 78.511719 18.117188 "/>
<path style=" stroke:none;fill-rule:nonzero;fill:rgb(1.176471%,57.254905%,83.529413%);fill-opacity:1;" d="M 78.859375 18.230469 C 78.90625 18.214844 78.976562 18.222656 79.070312 18.261719 C 79.023438 18.277344 78.953125 18.269531 78.859375 18.230469 Z M 78.859375 18.230469 "/>
<path style=" stroke:none;fill-rule:nonzero;fill:rgb(1.176471%,57.254905%,83.529413%);fill-opacity:1;" d="M 73.363281 16.925781 C 73.410156 16.910156 73.476562 16.925781 73.566406 16.96875 C 73.519531 16.984375 73.449219 16.972656 73.363281 16.925781 Z M 73.363281 16.925781 "/>
<path style=" stroke:none;fill-rule:nonzero;fill:rgb(1.176471%,57.254905%,83.529413%);fill-opacity:1;" d="M 73.222656 16.851562 C 73.242188 16.820312 73.277344 16.824219 73.328125 16.871094 C 73.3125 16.894531 73.277344 16.882812 73.222656 16.851562 Z M 73.222656 16.851562 "/>
<path style=" stroke:none;fill-rule:nonzero;fill:rgb(1.176471%,57.254905%,83.529413%);fill-opacity:1;" d="M 73.207031 14.644531 C 73.210938 14.667969 73.1875 14.699219 73.132812 14.742188 C 73.128906 14.722656 73.152344 14.6875 73.207031 14.644531 Z M 73.207031 14.644531 "/>
<path style=" stroke:none;fill-rule:nonzero;fill:rgb(1.176471%,57.254905%,83.529413%);fill-opacity:1;" d="M 73.328125 14.542969 C 73.339844 14.574219 73.3125 14.597656 73.257812 14.628906 C 73.253906 14.609375 73.277344 14.578125 73.328125 14.542969 Z M 73.328125 14.542969 "/>
<path style=" stroke:none;fill-rule:nonzero;fill:rgb(86.274511%,0.784314%,0.392157%);fill-opacity:1;" d="M 46.453125 38.015625 C 46.664062 37.410156 46.851562 36.84375 47.089844 36.132812 C 48.105469 39.214844 49.085938 42.183594 50.085938 45.203125 C 48.050781 45.203125 46.078125 45.203125 44.054688 45.203125 C 44.847656 42.816406 45.640625 40.433594 46.453125 38.015625 Z M 46.453125 38.015625 "/>
<path style=" stroke:none;fill-rule:nonzero;fill:rgb(86.274511%,0.784314%,0.392157%);fill-opacity:1;" d="M 67.824219 66.800781 C 67.21875 65.40625 67.210938 64.074219 68.117188 62.863281 C 68.847656 61.890625 70.179688 61.554688 71.324219 61.941406 C 72.449219 62.324219 73.1875 63.34375 73.242188 64.59375 C 73.300781 65.972656 73.019531 67.195312 71.648438 67.871094 C 70.203125 68.582031 68.648438 68.148438 67.824219 66.800781 Z M 67.824219 66.800781 "/>
<path style=" stroke:none;fill-rule:nonzero;fill:rgb(86.666667%,0%,0%);fill-opacity:1;" d="M 78.976562 64.328125 C 78.964844 64.371094 78.941406 64.394531 78.914062 64.417969 C 78.90625 64.390625 78.898438 64.359375 78.902344 64.304688 C 78.917969 64.277344 78.957031 64.308594 78.976562 64.328125 Z M 78.976562 64.328125 "/>
<path style=" stroke:none;fill-rule:nonzero;fill:rgb(86.274511%,0.784314%,0.392157%);fill-opacity:1;" d="M 41.003906 63.851562 C 41.179688 63.332031 41.339844 62.859375 41.550781 62.257812 C 41.996094 63.554688 42.402344 64.734375 42.824219 65.960938 C 41.964844 65.960938 41.15625 65.960938 40.261719 65.960938 C 40.511719 65.253906 40.75 64.574219 41.003906 63.851562 Z M 41.003906 63.851562 "/>
</g>
</svg>
